PathFileType	4	(X/Y/Z)	Walk6.trc
DataRate	CameraRate	NumFrames	NumMarkers	Units	OrigDataRate	OrigDataStartFrame	OrigNumFrames
200.000000	200.000000	5	59	mm	200.000000	422	500
Frame#	Times		LFHD		LBHD		C7		T10		RBack		LPSI		RPSI		RElbowM		RCAR		LUA1		LElbowM		LLFC		LCAR		RUA1		RFA1		RWRR		CLAV		LACR1		RTH3		RTB1		LWRU		RBHD		RACR1		RTB4		LFA1		LWRR		RTH2		RTB3		RToe		RElbow		RMT1		STRN		RWRU		RFHD		RTH4		RLFC		RCAL		RMT5		RTH1		RTB2		LTH3		LTH4		RMMAL		LTH1		LElbow		LTH2		LTB3		RLMAL		LTB2		RASI		LCAL		LMT1		LASI		LLMAL		LMT5		LToe		LTB1		LMMAL		LTB4
			X1	Y1	Z1	X2	Y2	Z2	X3	Y3	Z3	X4	Y4	Z4	X5	Y5	Z5	X6	Y6	Z6	X7	Y7	Z7	X8	Y8	Z8	X9	Y9	Z9	X10	Y10	Z10	X11	Y11	Z11	X12	Y12	Z12	X13	Y13	Z13	X14	Y14	Z14	X15	Y15	Z15	X16	Y16	Z16	X17	Y17	Z17	X18	Y18	Z18	X19	Y19	Z19	X20	Y20	Z20	X21	Y21	Z21	X22	Y22	Z22	X23	Y23	Z23	X24	Y24	Z24	X25	Y25	Z25	X26	Y26	Z26	X27	Y27	Z27	X28	Y28	Z28	X29	Y29	Z29	X30	Y30	Z30	X31	Y31	Z31	X32	Y32	Z32	X33	Y33	Z33	X34	Y34	Z34	X35	Y35	Z35	X36	Y36	Z36	X37	Y37	Z37	X38	Y38	Z38	X39	Y39	Z39	X40	Y40	Z40	X41	Y41	Z41	X42	Y42	Z42	X43	Y43	Z43	X44	Y44	Z44	X45	Y45	Z45	X46	Y46	Z46	X47	Y47	Z47	X48	Y48	Z48	X49	Y49	Z49	X50	Y50	Z50	X51	Y51	Z51	X52	Y52	Z52	X53	Y53	Z53	X54	Y54	Z54	X55	Y55	Z55	X56	Y56	Z56	X57	Y57	Z57	X58	Y58	Z58	X59	Y59	Z59

422	2.11	759.23	1482.5	-58.817	586.81	1486.3	-83.5	558.72	1347.2	-11.584	543.53	1075.4	-7.7275	543.65	1249.1	122.79	532.56	888.17	-51.207	517.64	897.96	48.706	616.04	955.27	189.44	786.33	760.05	284.83	619.59	1111	-254.12	554.16	967.12	-192.64	780.45	454.82	-124.99	652.24	706.05	-311.98	664.15	1142.1	223.29	685.77	874.31	272.01	798.77	803.24	238.07	687.85	1274.8	-9.9635	631.78	1282	-175.7	605.02	543.6	182.73	554.92	322.21	94.866	606.23	751.8	-322.21	584.01	1491.8	40.306	640.95	1294.5	140.69	482.54	265.75	87.799	586.2	874.43	-296.01	649.75	745.76	-264.9	691.54	634.04	177.53	418.47	198.38	77.627	375.26	30.255	40.229	657.78	999.29	264.93	362.48	73.312	35.421	757.15	1175.2	-14.146	732.52	772.78	254.05	763.08	1490.1	18.567	616.79	636.99	201.08	600.66	444.57	176.29	280.55	200.59	73.333	334.84	73.15	89.79	629.82	723.46	221.05	453.81	287.55	149.48	780.93	569.14	-136.09	756.04	657.69	-155.32	346.36	169.58	31.614	726.35	743.5	-180.18	575.6	996.55	-263.59	809.24	688.31	-114.77	830.1	163.9	-31.584	325.72	165.99	108.87	799.8	250.17	-107.41	775.4	883.6	148.61	750.77	27.9	-37.651	902.89	48.367	-21.496	726.82	857.05	-146.7	793.88	61.471	-77	883.89	29.16	-76.195	956.52	30.329	-27.646	821.8	346.31	-42.494	809.11	68.417	1.4839	817.72	254.49	-39.185
423	2.115	764.92	1483.8	-59.287	592.53	1487.3	-84.043	564.64	1348.2	-12.188	549.5	1076.5	-8.2897	549.6	1250.4	122.25	538.32	889.29	-51.507	523.56	898.44	48.448	620.93	956.9	188.46	789.02	760.1	285.03	626.15	1112.3	-254.63	560.69	968.48	-193.15	782.65	454.93	-125.73	659.75	707.39	-311.89	669.65	1143.4	222.73	689.47	875.3	271.67	801.93	803.07	238.15	693.8	1276	-10.414	637.97	1283.3	-176.13	614.2	543.88	183.6	565.44	322.47	96.914	613.68	753.02	-322.3	589.65	1492.9	39.76	646.9	1295.8	140.13	492.22	266.95	89.417	593.18	875.63	-296.34	657.22	747.27	-264.99	699.71	635.24	177.87	427.25	200.49	78.821	380.01	31.451	42.27	662.57	1000.5	264.21	369.12	75.604	36.706	763.07	1176.3	-14.674	735.37	773.27	254.09	768.72	1491.5	18.155	624.9	637.54	201.28	610.87	444.84	177.45	289.35	204.95	72.975	340.68	76.328	90.704	636.95	724.27	220.73	462.75	289.77	150.27	784.16	569.13	-137.01	760.21	658.12	-156.06	355.09	172.56	32.039	731.33	744.25	-180.74	582.19	997.86	-264.12	813.67	688.11	-115.43	830.76	163.75	-32.066	333.41	169.7	109.19	800.81	250.1	-107.97	777.86	883.58	148.15	750.81	27.917	-37.822	902.9	48.332	-21.668	728.13	857.35	-146.81	793.98	61.395	-77.213	883.9	29.023	-76.393	956.7	29.998	-27.595	823.57	346.2	-43.243	809.2	68.479	1.2307	818.92	254.42	-39.782
424	2.12	770.63	1485	-59.729	598.26	1488.3	-84.559	570.54	1349.3	-12.772	555.44	1077.6	-8.8486	555.5	1251.6	121.72	544.02	890.35	-51.818	529.43	898.89	48.143	625.77	958.47	187.55	791.71	760.14	285.26	632.72	1113.6	-255.13	567.15	969.8	-193.73	784.67	454.97	-126.38	667.35	708.72	-311.8	675.11	1144.6	222.21	693.15	876.25	271.35	805.09	802.91	238.26	699.72	1277.1	-10.831	644.16	1284.5	-176.55	623.41	544.2	184.42	576.1	322.79	98.821	621.2	754.21	-322.41	595.31	1493.9	39.24	652.8	1297	139.59	502.09	268.17	90.929	600.2	876.8	-296.71	664.74	748.77	-265.09	707.89	636.46	178.2	436.29	202.56	79.904	385.48	32.721	44.468	667.32	1001.6	263.55	376.32	77.857	38.062	768.96	1177.4	-15.153	738.23	773.73	254.13	774.38	1492.8	17.77	633.03	638.1	201.46	621.17	445.13	178.52	298.36	209	72.631	347.15	79.481	91.661	644.07	725.09	220.4	471.97	291.91	151.01	787.21	569.03	-137.83	764.22	658.45	-156.78	364.08	175.41	32.429	736.19	744.89	-181.3	588.8	999.13	-264.69	818.01	687.78	-116.15	831.39	163.6	-32.492	341.46	173.27	109.48	801.72	250.02	-108.44	780.09	883.57	147.68	750.84	27.933	-37.952	902.91	48.294	-21.789	728.89	857.53	-146.88	794.06	61.325	-77.374	883.91	28.903	-76.546	956.88	29.659	-27.51	825.23	346.08	-43.914	809.29	68.518	1.032	820.06	254.33	-40.309
425	2.125	776.35	1486.2	-60.143	604	1489.2	-85.048	576.42	1350.2	-13.334	561.33	1078.6	-9.4062	561.37	1252.8	121.19	549.67	891.35	-52.139	535.25	899.32	47.795	630.56	959.97	186.71	794.41	760.17	285.5	639.31	1114.8	-255.63	573.52	971.07	-194.4	786.55	454.95	-126.96	675.04	710.04	-311.72	680.53	1145.7	221.74	696.82	877.17	271.05	808.24	802.74	238.41	705.63	1278.1	-11.217	650.36	1285.7	-176.95	632.65	544.54	185.17	586.87	323.18	100.56	628.79	755.37	-322.54	600.99	1494.9	38.748	658.65	1298.2	139.09	512.14	269.39	92.315	607.25	877.93	-297.1	672.32	750.25	-265.2	716.07	637.72	178.51	445.57	204.56	80.871	391.74	34.041	46.802	672.05	1002.7	262.94	384.11	80.044	39.489	774.81	1178.3	-15.581	741.11	774.17	254.19	780.05	1494	17.41	641.16	638.67	201.58	631.54	445.44	179.5	307.58	212.71	72.29	354.27	82.561	92.659	651.17	725.9	220.06	481.47	293.95	151.7	790.09	568.84	-138.53	768.1	658.68	-157.47	373.32	178.09	32.783	740.95	745.43	-181.87	595.4	1000.4	-265.3	822.27	687.36	-116.93	832	163.44	-32.863	349.85	176.65	109.75	802.55	249.92	-108.84	782.14	883.58	147.2	750.85	27.951	-38.042	902.92	48.245	-21.857	729.21	857.6	-146.91	794.12	61.264	-77.483	883.91	28.796	-76.657	957.06	29.301	-27.394	826.8	345.94	-44.509	809.38	68.532	0.88886	821.13	254.22	-40.767
426	2.13	782.07	1487.3	-60.529	609.76	1490.1	-85.508	582.3	1351.2	-13.873	567.18	1079.6	-9.9649	567.19	1253.8	120.66	555.26	892.28	-52.47	541.04	899.74	47.406	635.28	961.39	185.95	797.13	760.18	285.77	645.9	1116	-256.14	579.82	972.28	-195.14	788.29	454.88	-127.44	682.81	711.33	-311.64	685.9	1146.8	221.3	700.49	878.03	270.78	811.4	802.56	238.59	711.52	1279	-11.573	656.57	1286.9	-177.34	641.9	544.91	185.86	597.73	323.64	102.13	636.45	756.49	-322.69	606.67	1495.8	38.284	664.45	1299.3	138.61	522.35	270.6	93.558	614.33	879.01	-297.54	679.95	751.71	-265.31	724.24	639.02	178.8	455.08	206.49	81.719	398.83	35.384	49.251	676.75	1003.8	262.39	392.49	82.14	40.991	780.63	1179.2	-15.96	744.01	774.58	254.25	785.74	1495.2	17.074	649.29	639.26	201.67	641.98	445.79	180.38	316.99	216.04	71.942	362.04	85.526	93.7	658.26	726.7	219.71	491.22	295.88	152.34	792.82	568.59	-139.1	771.84	658.82	-158.12	382.83	180.58	33.102	745.59	745.87	-182.44	602.01	1001.5	-265.95	826.44	686.84	-117.74	832.59	163.27	-33.18	358.58	179.82	109.97	803.3	249.82	-109.16	784.06	883.59	146.71	750.84	27.973	-38.093	902.93	48.182	-21.876	729.26	857.59	-146.91	794.17	61.21	-77.542	883.91	28.702	-76.729	957.25	28.915	-27.248	828.28	345.79	-45.033	809.48	68.521	0.8002	822.16	254.1	-41.157
